<?xml version="1.0" encoding="utf-8"?>
<!-- Generator: Adobe Illustrator 15.1.0, SVG Export Plug-In . SVG Version: 6.00 Build 0)  -->
<!DOCTYPE svg PUBLIC "-//W3C//DTD SVG 1.1//EN" "http://www.w3.org/Graphics/SVG/1.1/DTD/svg11.dtd">
<svg version="1.1" id="圖層_1" xmlns="http://www.w3.org/2000/svg" xmlns:xlink="http://www.w3.org/1999/xlink" x="0px" y="0px"
	 width="331.915px" height="233.228px" viewBox="0 0 331.915 233.228" enable-background="new 0 0 331.915 233.228"
	 xml:space="preserve">
<g>
	<path fill="#BF823B" d="M78.457,70.838c0,0,44.676-4.416,87.653,7.859c9.94-1.74,47.463-7.752,87.353-8.637l-25.381-33.008
		l-10.924,3.658L182.829,2.33l-3.898,1.563L173.08,0l-21.455,21.053l-8.585-5.461l-17.549,21.852l-14.045-7.803L78.453,70.844
		L78.457,70.838z M226.001,46.857l0.131-0.059l13.656,11.705l-19.9,10.537l-1.338-4.561L226.001,46.857z M152.646,53.213
		l10.919-20.891l3.271,1.996l12.265-19.959l4.9-2.662l27.747,32.313c-2.712,3.219-10.153,11.672-14.645,16.76l-8.806-12.795
		l-24.78,17.164l-10.876-11.926H152.646z M111.837,38.807l8.97,3.705l-3.689,10.789l-6.983,8.957l-1.479-1.354l-17.162,3.898
		L111.837,38.807z"/>
	<g>
		<path fill="#4CA234" d="M218.087,76.465c-2.102,0.191-4.164,0.377-6.194,0.576l35.229,38.918h21.008L218.087,76.465z"/>
		<path fill="#4CA234" d="M231.901,75.416c-1.375,0.092-2.752,0.182-4.116,0.279l51.027,40.264h19.143L231.901,75.416z"/>
		<path fill="#4CA234" d="M184.405,115.959h23.686l-19.673-36.225c-3.802,0.5-7.265,0.992-10.305,1.443L184.405,115.959z"/>
		<path fill="#4CA234" d="M310.6,115.959h18.872l-76.002-41.49c-3.334,0.074-6.65,0.189-9.934,0.33L310.6,115.959z"/>
		<path fill="#4CA234" d="M203.737,77.879c-2.872,0.316-5.637,0.633-8.279,0.955l20.162,37.125h22.58L203.737,77.879z"/>
		<path fill="#4CA234" d="M120.924,75.338c-1.975-0.154-3.91-0.281-5.797-0.395l-51.976,41.016h21.01L120.924,75.338z"/>
		<path fill="#4CA234" d="M153.393,79.947c-3.238-0.695-6.456-1.301-9.644-1.838l-20.556,37.85h23.682L153.393,79.947z"/>
		<path fill="#4CA234" d="M87.947,74.676c-5.982,0.225-9.49,0.568-9.49,0.568L1.759,115.959h18.927L87.947,74.676z"/>
		<path fill="#4CA234" d="M153.6,115.959h24.086l-6.112-33.768c-2.277,0.367-4.129,0.68-5.463,0.916
			c-2.087-0.602-4.177-1.143-6.266-1.662L153.6,115.959z"/>
		<path fill="#4CA234" d="M52.475,115.959l52.478-41.41c-1.392-0.029-2.747-0.051-4.057-0.063l-67.564,41.473H52.475z"/>
		<path fill="#4CA234" d="M136.802,77.041c-2.586-0.357-5.138-0.672-7.639-0.943l-36.08,39.861h22.581L136.802,77.041z"/>
	</g>
	<g>
		<g>
			<g>
				<rect x="266.699" y="208.045" fill="#FFFFFF" width="61.339" height="1.234"/>
			</g>
			<g>
				<rect x="1.759" y="208.045" fill="#FFFFFF" width="61.341" height="1.234"/>
			</g>
			<g>
				<path fill="#FFFFFF" d="M15.37,165.895c-1.95,0-3.683-0.248-5.217-0.75c-1.523-0.502-2.854-1.17-3.991-2.008
					c-1.133-0.84-2.093-1.799-2.883-2.881c-0.778-1.08-1.415-2.203-1.9-3.363c-0.487-1.166-0.841-2.316-1.055-3.469
					C0.106,152.277,0,151.213,0,150.24s0.106-2.037,0.324-3.184c0.214-1.15,0.567-2.305,1.055-3.471
					c0.485-1.16,1.122-2.281,1.9-3.359c0.79-1.084,1.75-2.049,2.883-2.881c1.137-0.842,2.468-1.51,3.991-2.004
					c1.534-0.508,3.267-0.758,5.217-0.758c1.942,0,3.683,0.25,5.209,0.758c1.526,0.494,2.858,1.162,3.993,2.004
					c1.135,0.832,2.096,1.797,2.88,2.881c0.785,1.078,1.421,2.199,1.904,3.359c0.49,1.166,0.842,2.32,1.057,3.471
					c0.217,1.146,0.325,2.211,0.325,3.184s-0.108,2.037-0.325,3.184c-0.215,1.152-0.566,2.303-1.057,3.469
					c-0.483,1.16-1.119,2.283-1.904,3.363c-0.784,1.082-1.745,2.041-2.88,2.881c-1.135,0.838-2.467,1.506-3.993,2.008
					S17.313,165.895,15.37,165.895z M15.37,137.219c-2.028,0-3.829,0.367-5.397,1.1c-1.565,0.727-2.876,1.695-3.931,2.898
					c-1.053,1.205-1.857,2.592-2.414,4.156c-0.553,1.566-0.834,3.197-0.834,4.867c0,1.674,0.281,3.295,0.834,4.846
					c0.557,1.553,1.361,2.934,2.414,4.133c1.055,1.207,2.365,2.172,3.931,2.9c1.568,0.732,3.369,1.1,5.397,1.1
					c2.023,0,3.821-0.367,5.394-1.1c1.569-0.729,2.878-1.693,3.932-2.9c1.053-1.199,1.857-2.58,2.411-4.133
					c0.554-1.551,0.833-3.172,0.833-4.846c0-1.67-0.279-3.301-0.833-4.867c-0.554-1.564-1.358-2.951-2.411-4.156
					c-1.054-1.203-2.362-2.172-3.932-2.898C19.191,137.586,17.394,137.219,15.37,137.219z"/>
				<path fill="#FFFFFF" d="M54.419,150.568c1.325,0.457,2.32,1.227,2.981,2.326c0.665,1.098,1.018,2.359,1.075,3.795
					c0.03,1.35,0.061,2.473,0.101,3.363c0.041,0.893,0.102,1.662,0.184,2.293c0.082,0.629,0.182,1.172,0.303,1.6
					c0.127,0.434,0.281,0.867,0.467,1.295h-2.758c-0.429-0.404-0.699-1.18-0.812-2.326c-0.107-1.15-0.186-2.791-0.244-4.922
					c-0.027-1.172-0.138-2.137-0.343-2.906c-0.204-0.77-0.552-1.387-1.055-1.846c-0.496-0.459-1.177-0.779-2.028-0.953
					c-0.853-0.178-1.94-0.258-3.266-0.258H37.105v13.211h-2.757v-30.008h14.721c1.347,0,2.619,0.129,3.813,0.369
					c1.186,0.246,2.226,0.672,3.118,1.295c0.896,0.621,1.605,1.461,2.13,2.52c0.526,1.055,0.79,2.389,0.79,4.014
					c0,1.43-0.364,2.803-1.09,4.113C57.1,148.854,55.96,149.867,54.419,150.568z M49.23,137.869H37.105v11.518h11.64
					c0.405,0,1.017-0.027,1.842-0.082c0.821-0.053,1.649-0.268,2.474-0.645c0.823-0.377,1.552-0.982,2.17-1.807
					c0.622-0.824,0.932-2.008,0.932-3.545c0-1.061-0.175-1.938-0.522-2.641c-0.354-0.703-0.849-1.252-1.483-1.656
					c-0.632-0.404-1.373-0.697-2.212-0.877C51.11,137.957,50.201,137.869,49.23,137.869z"/>
				<path fill="#FFFFFF" d="M89.257,159.566c-1.246,2.109-2.907,3.691-4.992,4.744c-2.079,1.055-4.35,1.584-6.809,1.584
					c-2.192,0-4.226-0.355-6.104-1.059c-1.878-0.699-3.51-1.719-4.887-3.059c-1.381-1.338-2.46-2.977-3.245-4.908
					c-0.783-1.932-1.176-4.137-1.176-6.629c0-1.813,0.305-3.643,0.914-5.496c0.605-1.854,1.539-3.527,2.797-5.027
					c1.257-1.504,2.86-2.729,4.806-3.688c1.947-0.963,4.244-1.445,6.896-1.445c1.758,0,3.398,0.227,4.927,0.67
					c1.527,0.449,2.887,1.121,4.076,2.029c1.187,0.91,2.2,2.027,3.042,3.365c0.834,1.34,1.447,2.896,1.823,4.688h-2.798
					c-0.301-1.357-0.785-2.537-1.459-3.549c-0.677-1.014-1.501-1.861-2.473-2.535c-0.976-0.674-2.071-1.186-3.292-1.521
					c-1.212-0.338-2.499-0.512-3.847-0.512c-1.947,0-3.698,0.348-5.252,1.037c-1.558,0.693-2.881,1.629-3.976,2.818
					c-1.095,1.188-1.935,2.576-2.514,4.156c-0.583,1.58-0.872,3.252-0.872,5.01s0.27,3.42,0.811,4.99
					c0.541,1.564,1.339,2.943,2.393,4.133c1.056,1.191,2.365,2.129,3.935,2.82c1.568,0.689,3.392,1.035,5.476,1.035
					c1.647,0,3.148-0.246,4.501-0.732c1.353-0.482,2.523-1.195,3.528-2.125c0.997-0.934,1.798-2.072,2.393-3.41
					c0.595-1.34,0.955-2.861,1.096-4.563H77.779v-2.637h14.032v15.488h-2.555V159.566z"/>
				<path fill="#FFFFFF" d="M119.667,165.24l-4.099-9.365h-14.837l-4.1,9.365h-3.117l13.301-30.008h2.68l13.295,30.008H119.667z
					 M108.155,139.09l-6.248,14.15h12.49L108.155,139.09z"/>
				<path fill="#FFFFFF" d="M147.65,160.785v-25.553h2.761v30.008h-3.006l-20.15-25.547v25.547h-2.761v-30.008h3.001L147.65,160.785
					z"/>
				<path fill="#FFFFFF" d="M155.233,165.24v-30.008h2.678v30.008H155.233z"/>
				<path fill="#FFFFFF" d="M177.011,165.895c-2.191,0-4.229-0.355-6.104-1.059c-1.883-0.699-3.506-1.719-4.895-3.059
					c-1.372-1.338-2.456-2.977-3.238-4.908c-0.784-1.932-1.178-4.137-1.178-6.629c0-1.813,0.309-3.643,0.914-5.496
					c0.607-1.854,1.541-3.527,2.799-5.027c1.257-1.504,2.862-2.729,4.81-3.688c1.943-0.963,4.241-1.445,6.892-1.445
					c1.73,0,3.345,0.223,4.846,0.648c1.5,0.438,2.848,1.09,4.057,1.973c1.2,0.873,2.234,1.988,3.096,3.344
					c0.869,1.354,1.5,2.945,1.907,4.787h-2.835c-0.352-1.406-0.887-2.625-1.603-3.65c-0.715-1.031-1.563-1.869-2.535-2.535
					c-0.973-0.658-2.041-1.152-3.224-1.463c-1.175-0.309-2.412-0.469-3.709-0.469c-1.95,0-3.7,0.348-5.251,1.037
					c-1.56,0.693-2.885,1.629-3.979,2.818c-1.088,1.188-1.927,2.576-2.514,4.156c-0.583,1.58-0.872,3.252-0.872,5.01
					s0.274,3.42,0.81,4.99c0.544,1.564,1.345,2.943,2.394,4.133c1.059,1.191,2.365,2.129,3.93,2.82
					c1.575,0.689,3.397,1.035,5.482,1.035c3.001,0,5.535-0.857,7.602-2.574c2.071-1.723,3.373-4.199,3.91-7.445h2.8
					c-0.187,1.598-0.636,3.15-1.334,4.662c-0.704,1.518-1.657,2.865-2.86,4.055c-1.204,1.191-2.656,2.148-4.36,2.883
					C181.061,165.525,179.145,165.895,177.011,165.895z"/>
			</g>
			<g>
				<path fill="#FFFFFF" d="M220.317,137.875v10.504h17.234v2.631h-17.234v14.236h-2.756v-30.014h21.004v2.643H220.317z"/>
				<path fill="#FFFFFF" d="M264.603,165.246l-4.096-9.363h-14.842l-4.099,9.363h-3.12l13.301-30.014h2.676l13.299,30.014H264.603z
					 M253.086,139.094l-6.247,14.15h12.491L253.086,139.094z"/>
				<path fill="#FFFFFF" d="M289.5,150.564c1.325,0.461,2.319,1.238,2.98,2.334c0.659,1.094,1.016,2.357,1.074,3.791
					c0.029,1.355,0.063,2.473,0.104,3.369c0.035,0.891,0.094,1.654,0.18,2.293c0.083,0.629,0.184,1.166,0.309,1.596
					c0.121,0.432,0.274,0.867,0.462,1.299h-2.755c-0.435-0.404-0.704-1.182-0.813-2.33c-0.106-1.148-0.187-2.789-0.245-4.926
					c-0.022-1.166-0.139-2.127-0.341-2.902c-0.208-0.77-0.554-1.383-1.061-1.844c-0.495-0.463-1.176-0.775-2.028-0.955
					c-0.847-0.176-1.936-0.264-3.26-0.264h-11.921v13.221h-2.757v-30.014h14.721c1.349,0,2.619,0.131,3.811,0.371
					c1.184,0.242,2.23,0.674,3.123,1.297c0.892,0.625,1.601,1.461,2.13,2.516c0.522,1.053,0.79,2.393,0.79,4.016
					c0,1.434-0.371,2.805-1.1,4.113C292.178,148.859,291.041,149.863,289.5,150.564z M284.309,137.875h-12.123v11.518h11.637
					c0.407,0,1.024-0.029,1.844-0.086c0.823-0.049,1.652-0.27,2.477-0.648c0.825-0.377,1.541-0.979,2.169-1.805
					c0.623-0.818,0.931-2.008,0.931-3.543c0-1.057-0.179-1.936-0.526-2.637c-0.348-0.705-0.844-1.258-1.479-1.664
					c-0.633-0.406-1.374-0.693-2.212-0.871C286.188,137.961,285.281,137.875,284.309,137.875z"/>
				<path fill="#FFFFFF" d="M300.978,140.227v25.02h-2.798v-30.014h3.486l13.382,26.045l13.38-26.045h3.487v30.014h-2.798v-25.02
					l-12.854,25.02h-2.433L300.978,140.227z"/>
			</g>
			<g>
				<path fill="#FFFFFF" d="M98.42,204.05c-1.183,7.344-2.737,13.105-4.667,17.287l-3.099-1.848
					c2.153-4.916,3.603-10.293,4.35-16.131L98.42,204.05z M116.958,213.868c-0.074,2.439-0.208,4.406-0.401,5.9
					s-0.441,2.471-0.747,2.932c-0.305,0.459-0.759,0.9-1.362,1.324s-1.453,0.676-2.548,0.756c-1.096,0.082-2.266,0.121-3.51,0.121
					c-1.382,0-2.683-0.053-3.902-0.158s-2.031-0.301-2.436-0.588c-0.405-0.287-0.726-0.678-0.962-1.176s-0.354-1.102-0.354-1.811
					v-21.17h3.416v20.254c0,0.922,0.557,1.363,1.671,1.326s2.978-0.057,5.592-0.057c0.41,0,0.817-0.133,1.223-0.4
					c0.404-0.268,0.678-1.385,0.821-3.352c0.143-1.967,0.215-3.596,0.215-4.891L116.958,213.868z M113.896,202.089l-2.912,2.109
					c-1.979-3.658-4.605-7.162-7.878-10.51l2.408-2.109C108.613,194.503,111.407,198.007,113.896,202.089z M124.557,218.536
					l-3.323,1.568c-1.22-5.09-3.168-10.074-5.844-14.953l2.987-1.605C121.352,209.208,123.411,214.206,124.557,218.536z"/>
				<path fill="#FFFFFF" d="M162.641,208.755h-7.486c-1.419,3.496-3,6.26-4.742,8.287c4.941,2.055,8.992,3.928,12.153,5.619
					l-2.016,2.801c-3.336-1.791-7.518-3.732-12.546-5.824c-3.908,3.125-9.745,5.027-17.511,5.713l-1.232-3.248
					c6.87-0.672,11.83-1.961,14.879-3.865c-3.348-1.27-6.789-2.408-10.323-3.416c1.456-1.904,2.894-3.926,4.313-6.066h-8.756v-3.213
					h10.79c1.17-1.828,2.34-3.82,3.51-5.973l3.641,0.541c-1.157,2.178-2.178,3.988-3.062,5.432h8.419
					c0.361-0.994,0.642-1.879,0.841-2.65l3.36,0.355c-0.101,0.66-0.306,1.426-0.616,2.295h6.385V208.755z M161.613,203.022h-3.397
					v-4.406h-24.325v4.443h-3.51v-7.691h13.796c-0.423-1.107-0.958-2.115-1.605-3.023l3.436-0.916
					c0.759,1.047,1.412,2.359,1.96,3.939h13.646V203.022z M151.401,208.755h-9.129c-0.709,1.207-1.63,2.631-2.763,4.273
					c2.377,0.811,4.916,1.73,7.617,2.764C148.744,213.976,150.17,211.628,151.401,208.755z"/>
				<path fill="#FFFFFF" d="M200.911,216.202h-21.6v5.359c1.916-0.338,3.839-0.797,5.769-1.383l0.205,2.838
					c-3.099,0.859-6.26,1.531-9.483,2.016l-0.915-2.52c0.81-0.273,1.214-0.746,1.214-1.418v-4.893h-3.174
					c-0.373,3.635-1.381,6.672-3.024,9.111l-2.52-2.371c1.53-2.514,2.296-5.152,2.296-7.916v-9.186h30.747v2.521h-27.35v1.605
					h25.576v2.184h-25.576v1.643h27.835V216.202z M198.895,204.274h-28.638v-10.176h8.438v-2.277h3.211v2.277h5.209v-2.277h3.248
					v2.277h8.531V204.274z M178.695,198.169v-1.699h-5.189v1.699H178.695z M178.695,201.978v-1.68h-5.189v1.68H178.695z
					 M187.115,198.169v-1.699h-5.209v1.699H187.115z M187.115,201.978v-1.68h-5.209v1.68H187.115z M200.985,222.587l-1.25,2.838
					c-6.435-0.746-11.699-3.168-15.794-7.262l3.024-1.121c1.194,1.096,2.569,2.055,4.126,2.875c1.68-0.795,3.409-1.779,5.189-2.949
					l2.445,1.961c-0.996,0.66-2.358,1.475-4.088,2.445C196.53,222.021,198.646,222.425,200.985,222.587z M195.684,198.169v-1.699
					h-5.32v1.699H195.684z M195.684,201.978v-1.68h-5.32v1.68H195.684z"/>
				<path fill="#FFFFFF" d="M216.237,203.433h-3.211v8.104c0.473-0.262,1.318-0.809,2.539-1.643l0.522,3.285
					c-4.493,3.012-7.691,4.928-9.596,5.75l-1.064-3.063c2.017-0.934,3.479-1.699,4.388-2.295v-10.139h-3.696v-3.061h3.696v-8.477
					h3.211v8.477h3.211V203.433z M239.031,209.481h-13.833c-0.561,0.859-1.009,1.494-1.345,1.904h14.412
					c-0.1,2.789-0.239,5.34-0.42,7.654s-0.361,3.688-0.541,4.117c-0.181,0.43-0.477,0.818-0.887,1.166
					c-0.411,0.348-0.968,0.594-1.671,0.738c-0.703,0.143-2.231,0.215-4.583,0.215l-1.064-3.063c0.685,0.051,1.382,0.074,2.091,0.074
					c1.593,0.014,2.563-0.191,2.912-0.615s0.604-2.918,0.766-7.486h-1.026c-1.917,4.643-5.589,8.352-11.015,11.127l-2.371-2.223
					c4.829-2.227,8.202-5.195,10.118-8.904h-2.408c-2.414,3.41-6.335,6.328-11.761,8.756l-2.185-2.371
					c4.767-1.941,8.184-4.07,10.249-6.385h-3.285c-1.494,1.27-2.888,2.314-4.182,3.137l-2.166-2.334
					c2.85-1.58,5.115-3.416,6.796-5.508h-5.993v-2.799h23.392V209.481z M237.09,204.739H217.73v-12.32h19.359V204.739z
					 M233.842,197.272v-1.979h-12.863v1.979H233.842z M233.842,201.94v-2.018h-12.863v2.018H233.842z"/>
			</g>
		</g>
	</g>
</g>
</svg>
