<?xml version="1.0" encoding="utf-8"?>
<!-- Generator: Adobe Illustrator 15.1.0, SVG Export Plug-In . SVG Version: 6.00 Build 0)  -->
<!DOCTYPE svg PUBLIC "-//W3C//DTD SVG 1.1//EN" "http://www.w3.org/Graphics/SVG/1.1/DTD/svg11.dtd">
<svg version="1.1" id="圖層_1" xmlns="http://www.w3.org/2000/svg" xmlns:xlink="http://www.w3.org/1999/xlink" x="0px" y="0px"
	 width="77.453px" height="54.921px" viewBox="0 0 77.453 54.921" enable-background="new 0 0 77.453 54.921" xml:space="preserve">
<g>
	<path fill="#BF823B" d="M18.308,16.53c0,0,10.426-1.03,20.454,1.834c2.32-0.406,11.076-1.809,20.385-2.015l-5.924-7.703L50.674,9.5
		l-8.011-8.956l-0.909,0.365L40.389,0l-5.008,4.913l-2.002-1.274l-4.096,5.099l-3.277-1.821L18.308,16.53L18.308,16.53z
		 M52.737,10.935l0.03-0.013l3.188,2.731l-4.644,2.458l-0.313-1.064L52.737,10.935z M35.619,12.417l2.549-4.875l0.764,0.466
		l2.862-4.658l1.143-0.622l6.476,7.542c-0.634,0.75-2.37,2.723-3.418,3.91l-2.055-2.985L38.156,15.2L35.619,12.417L35.619,12.417z
		 M26.098,9.056l2.092,0.864l-0.86,2.519L25.7,14.528l-0.346-0.315l-4.005,0.909L26.098,9.056z"/>
	<g>
		<path fill="#4CA234" d="M50.891,17.844c-0.49,0.044-0.972,0.088-1.445,0.134l8.221,9.082h4.902L50.891,17.844z"/>
		<path fill="#4CA234" d="M54.115,17.599c-0.322,0.021-0.644,0.043-0.961,0.065l11.907,9.396h4.467L54.115,17.599z"/>
		<path fill="#4CA234" d="M43.031,27.06h5.527l-4.591-8.453c-0.888,0.117-1.695,0.231-2.404,0.337L43.031,27.06z"/>
		<path fill="#4CA234" d="M72.479,27.06h4.404l-17.735-9.682c-0.777,0.018-1.552,0.044-2.318,0.078L72.479,27.06z"/>
		<path fill="#4CA234" d="M47.543,18.174c-0.671,0.073-1.316,0.147-1.933,0.222l4.705,8.664h5.269L47.543,18.174z"/>
		<path fill="#4CA234" d="M28.218,17.581c-0.461-0.037-0.912-0.066-1.353-0.092L14.736,27.06h4.903L28.218,17.581z"/>
		<path fill="#4CA234" d="M35.794,18.656c-0.755-0.163-1.506-0.303-2.25-0.429l-4.797,8.833h5.526L35.794,18.656z"/>
		<path fill="#4CA234" d="M20.522,17.426c-1.396,0.053-2.215,0.133-2.215,0.133L0.41,27.06h4.417L20.522,17.426z"/>
		<path fill="#4CA234" d="M35.843,27.06h5.62l-1.426-7.879c-0.531,0.085-0.964,0.158-1.275,0.213
			c-0.486-0.141-0.975-0.267-1.461-0.388L35.843,27.06z"/>
		<path fill="#4CA234" d="M12.245,27.06l12.245-9.663c-0.324-0.007-0.641-0.012-0.946-0.015L7.777,27.06H12.245z"/>
		<path fill="#4CA234" d="M31.923,17.978c-0.604-0.083-1.198-0.157-1.783-0.22l-8.419,9.302h5.27L31.923,17.978z"/>
	</g>
	<g>
		<g>
			<path fill="#FFFFFF" d="M3.586,38.713c-0.455,0-0.858-0.059-1.217-0.176c-0.355-0.117-0.666-0.273-0.932-0.469
				c-0.264-0.195-0.488-0.419-0.672-0.672c-0.183-0.252-0.331-0.514-0.444-0.785c-0.114-0.271-0.195-0.541-0.246-0.81
				C0.025,35.535,0,35.286,0,35.059c0-0.227,0.025-0.476,0.075-0.742c0.051-0.27,0.132-0.537,0.246-0.81
				c0.113-0.271,0.262-0.532,0.444-0.784c0.184-0.254,0.408-0.479,0.672-0.673c0.266-0.196,0.576-0.353,0.932-0.468
				c0.358-0.117,0.762-0.176,1.217-0.176c0.454,0,0.86,0.059,1.215,0.176c0.357,0.115,0.668,0.271,0.934,0.468
				c0.264,0.194,0.488,0.419,0.672,0.673c0.184,0.252,0.331,0.514,0.444,0.784c0.114,0.272,0.196,0.54,0.246,0.81
				c0.051,0.267,0.076,0.516,0.076,0.742c0,0.228-0.025,0.477-0.076,0.743c-0.05,0.269-0.132,0.538-0.246,0.81
				c-0.113,0.271-0.261,0.533-0.444,0.785c-0.184,0.253-0.408,0.477-0.672,0.672c-0.266,0.195-0.576,0.352-0.934,0.469
				C4.446,38.654,4.04,38.713,3.586,38.713z M3.586,32.021c-0.474,0-0.893,0.085-1.259,0.256c-0.366,0.17-0.671,0.395-0.917,0.676
				s-0.435,0.605-0.563,0.971c-0.13,0.365-0.194,0.745-0.194,1.135c0,0.392,0.064,0.77,0.194,1.131
				c0.129,0.363,0.317,0.686,0.563,0.965c0.246,0.281,0.551,0.508,0.917,0.677c0.366,0.171,0.785,0.257,1.259,0.257
				c0.473,0,0.893-0.086,1.259-0.257c0.366-0.169,0.672-0.396,0.917-0.677c0.246-0.279,0.435-0.602,0.563-0.965
				c0.131-0.361,0.195-0.739,0.195-1.131c0-0.39-0.064-0.77-0.195-1.135c-0.128-0.365-0.316-0.689-0.563-0.971
				c-0.245-0.281-0.551-0.506-0.917-0.676C4.479,32.106,4.059,32.021,3.586,32.021z"/>
			<path fill="#FFFFFF" d="M12.698,35.136c0.31,0.106,0.541,0.286,0.696,0.542c0.155,0.257,0.237,0.551,0.251,0.887
				c0.006,0.314,0.014,0.576,0.022,0.785c0.01,0.207,0.024,0.387,0.044,0.534c0.019,0.147,0.042,0.273,0.07,0.374
				c0.029,0.101,0.065,0.201,0.109,0.302h-0.644c-0.101-0.095-0.163-0.275-0.189-0.543c-0.025-0.269-0.044-0.651-0.057-1.149
				c-0.007-0.272-0.032-0.498-0.081-0.678c-0.047-0.18-0.128-0.323-0.245-0.43c-0.116-0.107-0.275-0.182-0.475-0.223
				c-0.199-0.042-0.452-0.061-0.762-0.061H8.658v3.083H8.015v-7.002h3.436c0.315,0,0.61,0.029,0.89,0.085
				c0.277,0.058,0.52,0.158,0.729,0.303c0.209,0.146,0.374,0.341,0.496,0.588c0.123,0.246,0.185,0.558,0.185,0.937
				c0,0.333-0.085,0.654-0.255,0.96S13.059,34.971,12.698,35.136z M11.487,32.173H8.658v2.688h2.717c0.095,0,0.236-0.007,0.43-0.019
				c0.191-0.014,0.385-0.063,0.577-0.151s0.362-0.229,0.506-0.421c0.146-0.193,0.218-0.469,0.218-0.828
				c0-0.248-0.04-0.451-0.122-0.615c-0.083-0.164-0.198-0.293-0.346-0.387c-0.148-0.096-0.321-0.164-0.517-0.205
				C11.926,32.192,11.714,32.173,11.487,32.173z"/>
			<path fill="#FFFFFF" d="M20.828,37.236c-0.291,0.491-0.679,0.859-1.165,1.106c-0.485,0.246-1.016,0.37-1.589,0.37
				c-0.512,0-0.986-0.084-1.425-0.248c-0.438-0.162-0.819-0.401-1.14-0.713c-0.323-0.313-0.574-0.695-0.758-1.146
				c-0.183-0.45-0.273-0.965-0.273-1.547c0-0.422,0.07-0.85,0.213-1.281c0.142-0.434,0.359-0.824,0.652-1.174
				c0.293-0.352,0.668-0.637,1.122-0.86c0.453-0.226,0.989-0.337,1.608-0.337c0.41,0,0.793,0.053,1.15,0.156
				c0.356,0.104,0.674,0.262,0.95,0.473c0.277,0.213,0.514,0.474,0.71,0.785c0.194,0.313,0.338,0.676,0.426,1.095h-0.652
				c-0.071-0.317-0.184-0.593-0.342-0.829c-0.157-0.236-0.35-0.434-0.576-0.59c-0.229-0.158-0.483-0.277-0.769-0.357
				c-0.282-0.077-0.583-0.117-0.897-0.117c-0.454,0-0.863,0.08-1.227,0.241c-0.362,0.161-0.671,0.38-0.927,0.657
				s-0.451,0.602-0.587,0.971c-0.136,0.368-0.203,0.758-0.203,1.168s0.063,0.799,0.189,1.165c0.126,0.366,0.313,0.687,0.559,0.965
				c0.246,0.277,0.551,0.497,0.918,0.657c0.365,0.16,0.791,0.242,1.277,0.242c0.384,0,0.734-0.059,1.051-0.172
				c0.315-0.111,0.589-0.278,0.822-0.495c0.233-0.218,0.42-0.483,0.559-0.796c0.14-0.313,0.223-0.668,0.256-1.064H18.15v-0.615
				h3.273v3.614h-0.596V37.236z"/>
			<path fill="#FFFFFF" d="M27.924,38.56l-0.956-2.185h-3.462l-0.957,2.185h-0.728l3.104-7.002h0.625l3.103,7.002H27.924z
				 M25.238,32.457L23.78,35.76h2.915L25.238,32.457z"/>
			<path fill="#FFFFFF" d="M34.454,37.52v-5.962h0.644v7.002h-0.7l-4.703-5.961v5.961h-0.644v-7.002h0.7L34.454,37.52z"/>
			<path fill="#FFFFFF" d="M36.224,38.56v-7.002h0.625v7.002H36.224z"/>
			<path fill="#FFFFFF" d="M41.306,38.713c-0.511,0-0.987-0.084-1.425-0.248c-0.439-0.162-0.817-0.401-1.142-0.713
				c-0.32-0.313-0.573-0.695-0.755-1.146c-0.184-0.45-0.275-0.965-0.275-1.547c0-0.422,0.071-0.85,0.213-1.281
				c0.142-0.434,0.359-0.824,0.654-1.174c0.293-0.352,0.667-0.637,1.121-0.86c0.453-0.226,0.989-0.337,1.608-0.337
				c0.403,0,0.78,0.051,1.131,0.151c0.35,0.102,0.664,0.255,0.946,0.46c0.28,0.203,0.521,0.464,0.723,0.779
				c0.203,0.316,0.35,0.688,0.445,1.118h-0.662c-0.081-0.328-0.207-0.612-0.373-0.853c-0.167-0.24-0.365-0.436-0.592-0.591
				c-0.228-0.154-0.477-0.269-0.752-0.342c-0.274-0.071-0.564-0.108-0.866-0.108c-0.455,0-0.863,0.08-1.226,0.241
				c-0.364,0.161-0.673,0.38-0.928,0.657c-0.254,0.277-0.45,0.602-0.588,0.971c-0.136,0.368-0.203,0.758-0.203,1.168
				s0.064,0.799,0.189,1.165c0.127,0.366,0.313,0.687,0.559,0.965c0.247,0.277,0.552,0.497,0.917,0.657
				c0.368,0.16,0.792,0.242,1.279,0.242c0.7,0,1.292-0.201,1.773-0.601c0.483-0.403,0.788-0.98,0.912-1.737h0.653
				c-0.043,0.373-0.148,0.734-0.311,1.088c-0.164,0.354-0.387,0.668-0.668,0.945c-0.28,0.278-0.618,0.502-1.018,0.674
				C42.25,38.626,41.803,38.713,41.306,38.713z"/>
		</g>
		<g>
			<path fill="#FFFFFF" d="M51.411,32.173v2.452h4.021v0.613h-4.021v3.322h-0.644v-7.003h4.902v0.615H51.411z"/>
			<path fill="#FFFFFF" d="M61.744,38.561l-0.954-2.186h-3.464l-0.957,2.186h-0.728l3.104-7.003h0.624l3.104,7.003H61.744z
				 M59.058,32.458l-1.457,3.302h2.914L59.058,32.458z"/>
			<path fill="#FFFFFF" d="M67.556,35.135c0.309,0.107,0.541,0.289,0.695,0.545c0.153,0.255,0.237,0.549,0.25,0.885
				c0.007,0.315,0.015,0.576,0.025,0.785c0.008,0.209,0.021,0.387,0.041,0.535c0.02,0.147,0.044,0.272,0.072,0.373
				c0.028,0.102,0.064,0.203,0.108,0.303h-0.644c-0.101-0.094-0.165-0.275-0.189-0.543c-0.024-0.269-0.044-0.651-0.058-1.15
				c-0.006-0.271-0.033-0.496-0.08-0.676c-0.049-0.181-0.129-0.324-0.246-0.432c-0.115-0.107-0.275-0.181-0.474-0.223
				c-0.198-0.041-0.451-0.062-0.761-0.062h-2.782v3.085h-0.643v-7.003h3.435c0.314,0,0.611,0.03,0.89,0.086
				c0.276,0.056,0.521,0.157,0.729,0.303s0.373,0.341,0.497,0.587c0.122,0.246,0.184,0.559,0.184,0.938
				c0,0.334-0.086,0.654-0.256,0.959C68.18,34.736,67.915,34.971,67.556,35.135z M66.344,32.173h-2.829v2.688h2.716
				c0.095,0,0.238-0.008,0.43-0.02c0.192-0.012,0.385-0.063,0.578-0.152c0.192-0.088,0.359-0.228,0.506-0.42
				c0.146-0.191,0.217-0.469,0.217-0.827c0-0.247-0.041-0.452-0.122-0.616s-0.196-0.293-0.346-0.388
				c-0.146-0.095-0.32-0.161-0.515-0.203C66.782,32.193,66.57,32.173,66.344,32.173z"/>
			<path fill="#FFFFFF" d="M70.233,32.723v5.838h-0.652v-7.003h0.813l3.122,6.077l3.123-6.077h0.813v7.003H76.8v-5.838l-2.999,5.838
				h-0.568L70.233,32.723z"/>
		</g>
	</g>
	<g>
		<g>
			<rect x="62.234" y="48.549" fill="#FFFFFF" width="14.313" height="0.287"/>
		</g>
		<g>
			<rect x="0.41" y="48.549" fill="#FFFFFF" width="14.314" height="0.287"/>
		</g>
		<g>
			<path fill="#FFFFFF" d="M19.557,46.769c-0.444,1.969-0.949,3.52-1.517,4.654l-0.528-0.37c0.613-1.099,1.099-2.587,1.458-4.464
				L19.557,46.769z M24.892,49.563c-0.042,0.684-0.104,1.253-0.188,1.709c-0.082,0.457-0.179,0.753-0.287,0.891
				c-0.109,0.137-0.256,0.232-0.438,0.285c-0.184,0.053-0.611,0.079-1.284,0.079c-0.5,0-0.917-0.012-1.249-0.034
				c-0.333-0.023-0.573-0.103-0.719-0.238c-0.146-0.136-0.22-0.33-0.22-0.583v-6.007h0.587v5.843c0,0.099,0.029,0.187,0.09,0.264
				c0.06,0.078,0.119,0.124,0.18,0.137c0.06,0.014,0.331,0.023,0.813,0.026l1.405,0.005c0.109,0,0.218-0.046,0.327-0.14
				c0.109-0.093,0.199-0.407,0.27-0.943c0.07-0.535,0.103-1.036,0.096-1.5L24.892,49.563z M23.883,46.077l-0.486,0.391
				c-0.549-0.986-1.36-1.967-2.435-2.942l0.443-0.401C22.427,44.067,23.253,45.052,23.883,46.077z M26.989,50.795l-0.607,0.216
				c-0.271-1.201-0.826-2.571-1.664-4.11l0.528-0.312C26.07,48.213,26.651,49.615,26.989,50.795z"/>
			<path fill="#FFFFFF" d="M37.819,47.895h-2.563c-0.373,1.049-0.882,1.93-1.526,2.642c2.187,0.877,3.484,1.44,3.894,1.69
				l-0.344,0.486c-0.539-0.313-1.877-0.895-4.015-1.744c-1.18,0.849-2.67,1.423-4.47,1.723l-0.312-0.555
				c1.592-0.226,2.962-0.694,4.11-1.405c-0.831-0.335-1.853-0.685-3.064-1.052c0.553-0.577,1.026-1.173,1.421-1.785h-2.567v-0.561
				h2.922c0.359-0.566,0.727-1.237,1.104-2.013l0.555,0.206c-0.261,0.539-0.586,1.142-0.977,1.807h2.837
				c0.123-0.334,0.213-0.637,0.27-0.908l0.549,0.174l-0.2,0.734h2.377V47.895z M37.429,46.362h-0.571v-1.474h-7.496v1.474h-0.597
				v-2.034h4.1c-0.152-0.327-0.324-0.643-0.519-0.945l0.519-0.249c0.197,0.31,0.399,0.708,0.607,1.194h3.957V46.362z M34.607,47.895
				h-2.953c-0.353,0.546-0.717,1.048-1.094,1.505c0.669,0.194,1.526,0.49,2.572,0.887C33.746,49.699,34.237,48.901,34.607,47.895z"
				/>
			<path fill="#FFFFFF" d="M48.628,50.082h-6.413v1.907c0.612-0.116,1.274-0.29,1.986-0.522l0.068,0.507
				c-0.866,0.25-1.743,0.478-2.631,0.682l-0.164-0.465c0.151-0.042,0.228-0.153,0.228-0.333v-1.775h-1.146
				c-0.123,0.972-0.443,1.819-0.962,2.541L39.172,52.3c0.584-0.919,0.877-1.838,0.877-2.758v-2.155h8.437v0.465h-7.898v0.65h7.317
				v0.454h-7.317v0.65h8.041V50.082z M47.904,46.663h-7.682v-2.705h2.388v-0.755h0.545v0.755h1.838v-0.755h0.528v0.755h2.383V46.663
				z M42.61,45.052v-0.639h-1.859v0.639H42.61z M42.61,46.198v-0.713h-1.859v0.713H42.61z M44.993,45.052v-0.639h-1.838v0.639
				H44.993z M44.993,46.198v-0.713h-1.838v0.713H44.993z M48.739,52.115l-0.232,0.528c-1.793-0.176-3.328-0.861-4.607-2.055
				l0.423-0.312c0.434,0.398,0.881,0.726,1.342,0.983c0.743-0.271,1.359-0.592,1.85-0.962l0.433,0.338
				c-0.443,0.313-1.005,0.616-1.685,0.909C47.004,51.858,47.83,52.049,48.739,52.115z M47.371,45.052v-0.639h-1.85v0.639H47.371z
				 M47.371,46.198v-0.713h-1.85v0.713H47.371z"/>
			<path fill="#FFFFFF" d="M52.997,49.141c-1.106,0.616-2.043,1.064-2.811,1.342l-0.228-0.555c0.504-0.159,0.965-0.345,1.385-0.56
				v-3.054h-1.253v-0.539h1.253v-2.562h0.564v2.562h1.067v0.539h-1.067v2.806c0.384-0.184,0.716-0.361,0.993-0.534L52.997,49.141z
				 M59.426,47.916h-3.951c-0.123,0.222-0.282,0.468-0.476,0.74h4.068c-0.025,0.637-0.074,1.306-0.148,2.005
				s-0.137,1.114-0.188,1.247s-0.134,0.258-0.248,0.377c-0.114,0.12-0.254,0.21-0.418,0.27c-0.163,0.06-0.467,0.09-0.911,0.09
				c-0.116,0-0.235-0.003-0.359-0.011l-0.216-0.549c0.288,0.028,0.566,0.042,0.834,0.042c0.293,0,0.486-0.036,0.581-0.108
				c0.096-0.072,0.166-0.167,0.212-0.285s0.098-0.445,0.155-0.982c0.059-0.537,0.1-1.066,0.125-1.588h-0.65
				c-0.658,1.515-1.82,2.668-3.486,3.46l-0.418-0.396c1.631-0.775,2.737-1.796,3.318-3.064h-0.993
				c-0.705,1.088-1.863,1.99-3.477,2.705l-0.386-0.444c1.521-0.641,2.592-1.395,3.212-2.261h-1.083
				c-0.479,0.458-1.022,0.851-1.632,1.178l-0.402-0.412c1.092-0.556,1.876-1.227,2.352-2.013H52.77v-0.539h6.656V47.916z
				 M58.671,46.632h-5.172v-3.181h5.172V46.632z M58.116,44.756V43.99h-4.058v0.766H58.116z M58.116,46.098v-0.83h-4.058v0.83
				H58.116z"/>
		</g>
	</g>
</g>
</svg>
