<?xml version="1.0" encoding="utf-8"?>
<!-- Generator: Adobe Illustrator 15.1.0, SVG Export Plug-In . SVG Version: 6.00 Build 0)  -->
<!DOCTYPE svg PUBLIC "-//W3C//DTD SVG 1.1//EN" "http://www.w3.org/Graphics/SVG/1.1/DTD/svg11.dtd">
<svg version="1.1" id="圖層_1" xmlns="http://www.w3.org/2000/svg" xmlns:xlink="http://www.w3.org/1999/xlink" x="0px" y="0px"
	 width="212.219px" height="155.984px" viewBox="0 0 212.219 155.984" enable-background="new 0 0 212.219 155.984"
	 xml:space="preserve">
<linearGradient id="SVGID_1_" gradientUnits="userSpaceOnUse" x1="106.1094" y1="-4.3325" x2="106.1094" y2="155.7803">
	<stop  offset="0" style="stop-color:#3F5E0B"/>
	<stop  offset="1" style="stop-color:#395408"/>
</linearGradient>
<path fill="url(#SVGID_1_)" d="M0,144.915c0,6.113,4.496,11.069,10.043,11.069h192.134c5.546,0,10.042-4.956,10.042-11.069V0H0
	V144.915z"/>
<g>
	<path fill="#BF823B" d="M58.509,54.815c0,0,24.63-2.434,48.324,4.333c5.481-0.958,26.167-4.272,48.159-4.76L140.999,36.19
		l-6.022,2.016l-18.925-21.159l-2.151,0.863l-3.224-2.147l-11.83,11.606l-4.732-3.011l-9.675,12.049l-7.742-4.303l-18.19,22.714
		L58.509,54.815z M139.851,41.596l0.072-0.032l7.529,6.454l-10.972,5.808l-0.738-2.513L139.851,41.596z M99.41,45.098l6.019-11.517
		l1.805,1.102l6.761-11.003l2.701-1.468l15.298,17.815c-1.495,1.774-5.599,6.433-8.074,9.239l-4.854-7.054l-13.661,9.462
		l-5.997-6.575H99.41z M76.911,37.157l4.946,2.042l-2.034,5.95l-3.85,4.937l-0.815-0.746l-9.461,2.149L76.911,37.157z"/>
	<g>
		<path fill="#4CA234" d="M135.488,57.919c-1.159,0.104-2.296,0.207-3.416,0.317l19.422,21.455h11.582L135.488,57.919z"/>
		<path fill="#4CA234" d="M143.104,57.34c-0.76,0.05-1.519,0.101-2.271,0.154l28.132,22.198h10.553L143.104,57.34z"/>
		<path fill="#4CA234" d="M116.918,79.691h13.06l-10.847-19.971c-2.096,0.276-4.004,0.546-5.681,0.795L116.918,79.691z"/>
		<path fill="#4CA234" d="M186.491,79.691h10.404l-41.9-22.873c-1.839,0.042-3.666,0.104-5.476,0.183L186.491,79.691z"/>
		<path fill="#4CA234" d="M127.577,58.699c-1.583,0.173-3.108,0.348-4.565,0.526l11.116,20.467h12.448L127.577,58.699z"/>
		<path fill="#4CA234" d="M81.922,57.296c-1.089-0.085-2.156-0.154-3.198-0.217L50.07,79.691h11.583L81.922,57.296z"/>
		<path fill="#4CA234" d="M99.821,59.838c-1.785-0.384-3.559-0.717-5.316-1.014L83.173,79.691h13.055L99.821,59.838z"/>
		<path fill="#4CA234" d="M63.741,56.932c-3.299,0.125-5.232,0.314-5.232,0.314L16.224,79.691h10.436L63.741,56.932z"/>
		<path fill="#4CA234" d="M99.936,79.691h13.278l-3.369-18.615c-1.256,0.2-2.276,0.373-3.012,0.503
			c-1.15-0.331-2.303-0.63-3.454-0.916L99.936,79.691z"/>
		<path fill="#4CA234" d="M44.185,79.691l28.931-22.829c-0.768-0.016-1.514-0.027-2.235-0.035L33.631,79.691H44.185z"/>
		<path fill="#4CA234" d="M90.675,58.236c-1.425-0.198-2.832-0.37-4.211-0.519L66.572,79.691h12.45L90.675,58.236z"/>
	</g>
	<g>
		<g>
			<path fill="#FFFFFF" stroke="#FFFFFF" stroke-miterlimit="10" d="M23.729,107.223c-1.075,0-2.03-0.139-2.875-0.415
				c-0.842-0.276-1.575-0.646-2.2-1.107c-0.625-0.462-1.154-0.991-1.59-1.588c-0.43-0.594-0.78-1.214-1.048-1.854
				c-0.268-0.644-0.463-1.278-0.582-1.913c-0.12-0.632-0.18-1.219-0.18-1.755c0-0.537,0.06-1.124,0.18-1.755
				c0.118-0.636,0.313-1.27,0.582-1.913c0.268-0.64,0.618-1.259,1.048-1.853c0.436-0.598,0.965-1.129,1.59-1.588
				c0.625-0.463,1.358-0.832,2.2-1.104c0.845-0.279,1.8-0.417,2.875-0.417c1.071,0,2.03,0.139,2.873,0.417
				c0.841,0.273,1.575,0.642,2.202,1.104c0.625,0.459,1.154,0.991,1.587,1.588c0.433,0.594,0.783,1.213,1.049,1.853
				c0.27,0.643,0.464,1.277,0.583,1.913c0.119,0.631,0.178,1.219,0.178,1.755c0,0.536-0.06,1.123-0.178,1.755
				c-0.118,0.635-0.313,1.269-0.583,1.913c-0.267,0.64-0.616,1.259-1.049,1.854c-0.433,0.598-0.962,1.126-1.587,1.588
				c-0.627,0.461-1.36,0.831-2.202,1.107C25.759,107.084,24.8,107.223,23.729,107.223z M23.729,91.413
				c-1.118,0-2.11,0.202-2.975,0.605c-0.864,0.401-1.586,0.936-2.168,1.6c-0.581,0.664-1.024,1.429-1.33,2.292
				c-0.306,0.863-0.46,1.761-0.46,2.683c0,0.924,0.155,1.816,0.46,2.671c0.306,0.855,0.75,1.618,1.33,2.279
				c0.582,0.665,1.304,1.198,2.168,1.599c0.864,0.404,1.856,0.606,2.975,0.606c1.116,0,2.107-0.203,2.974-0.606
				c0.865-0.401,1.587-0.934,2.167-1.599c0.579-0.661,1.024-1.423,1.328-2.279c0.307-0.855,0.46-1.747,0.46-2.671
				c0-0.922-0.153-1.82-0.46-2.683c-0.304-0.863-0.749-1.628-1.328-2.292c-0.58-0.664-1.303-1.199-2.167-1.6
				C25.836,91.614,24.845,91.413,23.729,91.413z"/>
			<path fill="#FFFFFF" stroke="#FFFFFF" stroke-miterlimit="10" d="M45.257,98.772c0.73,0.251,1.279,0.677,1.643,1.282
				c0.366,0.606,0.561,1.302,0.593,2.093c0.016,0.744,0.033,1.363,0.055,1.854c0.023,0.491,0.057,0.916,0.101,1.264
				c0.046,0.348,0.101,0.646,0.168,0.881c0.069,0.24,0.154,0.478,0.257,0.715h-1.521c-0.237-0.224-0.385-0.65-0.447-1.284
				c-0.061-0.634-0.103-1.537-0.135-2.713c-0.014-0.645-0.076-1.177-0.189-1.602c-0.112-0.424-0.304-0.765-0.582-1.017
				c-0.272-0.252-0.647-0.43-1.117-0.525c-0.47-0.098-1.07-0.144-1.8-0.144h-6.572v7.285h-1.52V90.318h8.116
				c0.742,0,1.443,0.07,2.102,0.202c0.654,0.136,1.228,0.373,1.72,0.715c0.493,0.342,0.885,0.804,1.174,1.388
				c0.291,0.582,0.436,1.317,0.436,2.212c0,0.788-0.202,1.545-0.602,2.268C46.733,97.826,46.106,98.384,45.257,98.772z
				 M42.396,91.771h-6.685v6.35h6.417c0.225,0,0.561-0.017,1.016-0.045c0.454-0.029,0.91-0.148,1.364-0.356
				c0.454-0.207,0.855-0.541,1.196-0.996c0.342-0.454,0.514-1.107,0.514-1.955c0-0.584-0.097-1.068-0.289-1.455
				c-0.196-0.388-0.467-0.691-0.817-0.914c-0.349-0.223-0.757-0.385-1.219-0.483C43.432,91.818,42.932,91.771,42.396,91.771z"/>
			<path fill="#FFFFFF" stroke="#FFFFFF" stroke-miterlimit="10" d="M64.463,103.732c-0.687,1.164-1.604,2.035-2.752,2.616
				c-1.146,0.582-2.399,0.874-3.755,0.874c-1.208,0-2.33-0.197-3.366-0.585c-1.035-0.385-1.935-0.948-2.694-1.686
				c-0.761-0.738-1.356-1.641-1.788-2.706c-0.432-1.065-0.648-2.281-0.648-3.654c0-0.998,0.167-2.008,0.503-3.03
				c0.334-1.022,0.848-1.944,1.542-2.772c0.692-0.83,1.577-1.503,2.65-2.033c1.072-0.53,2.339-0.796,3.8-0.796
				c0.969,0,1.874,0.125,2.717,0.369c0.842,0.247,1.591,0.62,2.247,1.118c0.654,0.501,1.213,1.118,1.678,1.857
				c0.46,0.738,0.798,1.595,1.005,2.583h-1.544c-0.164-0.748-0.432-1.399-0.803-1.956c-0.374-0.559-0.828-1.026-1.364-1.397
				c-0.539-0.373-1.141-0.654-1.814-0.84c-0.668-0.186-1.378-0.282-2.122-0.282c-1.073,0-2.039,0.191-2.896,0.571
				c-0.859,0.383-1.587,0.898-2.192,1.554c-0.602,0.656-1.065,1.42-1.384,2.292c-0.321,0.871-0.481,1.792-0.481,2.762
				c0,0.969,0.148,1.885,0.446,2.751c0.299,0.863,0.738,1.623,1.321,2.279c0.582,0.655,1.303,1.174,2.167,1.554
				c0.866,0.379,1.871,0.571,3.019,0.571c0.908,0,1.736-0.136,2.482-0.404c0.744-0.266,1.392-0.658,1.944-1.171
				c0.551-0.515,0.991-1.141,1.319-1.88c0.328-0.738,0.526-1.576,0.604-2.514h-6.17v-1.453h7.735v8.539h-1.408V103.732z"/>
			<path fill="#FFFFFF" stroke="#FFFFFF" stroke-miterlimit="10" d="M81.229,106.861l-2.261-5.163h-8.179l-2.26,5.163H66.81
				l7.333-16.543h1.478l7.329,16.543H81.229z M74.882,92.443l-3.444,7.802h6.886L74.882,92.443z"/>
			<path fill="#FFFFFF" stroke="#FFFFFF" stroke-miterlimit="10" d="M96.655,104.404V90.318h1.522v16.543h-1.657L85.412,92.778
				v14.083h-1.523V90.318h1.655L96.655,104.404z"/>
			<path fill="#FFFFFF" stroke="#FFFFFF" stroke-miterlimit="10" d="M100.836,106.861V90.318h1.476v16.543H100.836z"/>
			<path fill="#FFFFFF" stroke="#FFFFFF" stroke-miterlimit="10" d="M112.842,107.223c-1.208,0-2.331-0.197-3.365-0.585
				c-1.038-0.385-1.932-0.948-2.697-1.686c-0.758-0.738-1.354-1.641-1.785-2.706c-0.433-1.065-0.65-2.281-0.65-3.654
				c0-0.998,0.17-2.008,0.505-3.03c0.334-1.022,0.849-1.944,1.542-2.772c0.694-0.83,1.578-1.503,2.651-2.033
				c1.072-0.53,2.339-0.796,3.8-0.796c0.953,0,1.844,0.122,2.672,0.358c0.826,0.24,1.569,0.601,2.236,1.086
				c0.662,0.481,1.232,1.098,1.708,1.843c0.479,0.747,0.826,1.625,1.051,2.64h-1.563c-0.194-0.775-0.489-1.447-0.884-2.012
				c-0.394-0.569-0.861-1.031-1.398-1.398c-0.535-0.364-1.125-0.635-1.776-0.808c-0.648-0.169-1.331-0.257-2.045-0.257
				c-1.075,0-2.039,0.191-2.895,0.571c-0.86,0.383-1.589,0.898-2.194,1.554c-0.599,0.656-1.062,1.42-1.386,2.292
				c-0.32,0.871-0.48,1.792-0.48,2.762c0,0.969,0.151,1.885,0.446,2.751c0.301,0.863,0.742,1.623,1.321,2.279
				c0.584,0.655,1.304,1.174,2.167,1.554c0.868,0.379,1.872,0.571,3.021,0.571c1.654,0,3.053-0.473,4.191-1.418
				c1.142-0.951,1.859-2.315,2.156-4.106h1.543c-0.104,0.882-0.353,1.737-0.735,2.571c-0.389,0.836-0.915,1.58-1.577,2.236
				c-0.664,0.656-1.464,1.186-2.404,1.588C115.075,107.018,114.019,107.223,112.842,107.223z"/>
		</g>
		<g>
			<path fill="#FFFFFF" stroke="#FFFFFF" stroke-miterlimit="10" d="M136.718,91.773v5.792h9.502v1.451h-9.502v7.848h-1.521V90.318
				h11.58v1.455H136.718z"/>
			<path fill="#FFFFFF" stroke="#FFFFFF" stroke-miterlimit="10" d="M161.132,106.863l-2.257-5.163h-8.183l-2.26,5.163h-1.72
				l7.332-16.545h1.476l7.332,16.545H161.132z M154.782,92.446l-3.443,7.801h6.886L154.782,92.446z"/>
			<path fill="#FFFFFF" stroke="#FFFFFF" stroke-miterlimit="10" d="M174.858,98.771c0.73,0.252,1.279,0.682,1.643,1.286
				c0.363,0.603,0.56,1.3,0.592,2.09c0.015,0.746,0.035,1.364,0.058,1.856c0.02,0.492,0.052,0.913,0.1,1.264
				c0.045,0.348,0.101,0.643,0.169,0.88c0.067,0.239,0.152,0.479,0.255,0.715h-1.519c-0.24-0.224-0.389-0.649-0.449-1.284
				c-0.058-0.632-0.103-1.537-0.135-2.716c-0.012-0.642-0.076-1.173-0.188-1.599c-0.113-0.425-0.305-0.764-0.584-1.017
				c-0.273-0.254-0.648-0.427-1.118-0.527c-0.468-0.096-1.066-0.145-1.797-0.145h-6.572v7.288h-1.52V90.318h8.116
				c0.744,0,1.445,0.071,2.102,0.204c0.652,0.133,1.229,0.372,1.721,0.716c0.491,0.343,0.883,0.804,1.174,1.386
				c0.289,0.581,0.437,1.318,0.437,2.214c0,0.79-0.205,1.547-0.607,2.268C176.333,97.829,175.707,98.382,174.858,98.771z
				 M171.995,91.773h-6.683v6.351h6.416c0.226,0,0.565-0.016,1.017-0.047c0.455-0.027,0.911-0.148,1.364-0.358
				c0.455-0.207,0.852-0.54,1.196-0.995c0.345-0.452,0.514-1.106,0.514-1.953c0-0.583-0.098-1.067-0.29-1.455
				c-0.191-0.387-0.465-0.693-0.815-0.917c-0.349-0.224-0.757-0.383-1.218-0.48C173.032,91.822,172.532,91.773,171.995,91.773z"/>
			<path fill="#FFFFFF" stroke="#FFFFFF" stroke-miterlimit="10" d="M181.186,93.07v13.793h-1.543V90.318h1.922l7.379,14.358
				l7.376-14.358h1.923v16.545h-1.543V93.07l-7.086,13.793h-1.341L181.186,93.07z"/>
		</g>
	</g>
	<g>
		<g>
			<rect x="162.287" y="130.459" fill="#FFFFFF" width="33.816" height="0.68"/>
		</g>
		<g>
			<rect x="16.224" y="130.459" fill="#FFFFFF" width="33.818" height="0.68"/>
		</g>
		<g>
			<path fill="#FFFFFF" d="M61.72,126.007c-0.791,4.909-1.831,8.762-3.12,11.557l-2.072-1.236c1.439-3.286,2.409-6.881,2.908-10.783
				L61.72,126.007z M74.114,132.571c-0.05,1.631-0.14,2.946-0.269,3.944s-0.295,1.652-0.499,1.959
				c-0.204,0.308-0.508,0.603-0.911,0.886c-0.404,0.283-0.972,0.451-1.704,0.506c-0.732,0.054-1.515,0.081-2.347,0.081
				c-0.923,0-1.793-0.036-2.608-0.106s-1.358-0.202-1.629-0.393s-0.485-0.454-0.643-0.787c-0.158-0.332-0.237-0.736-0.237-1.21
				v-14.154h2.284v13.542c0,0.616,0.372,0.911,1.117,0.887c0.744-0.025,1.991-0.038,3.738-0.038c0.275,0,0.547-0.089,0.818-0.268
				c0.27-0.179,0.453-0.926,0.549-2.241s0.144-2.405,0.144-3.27L74.114,132.571z M72.067,124.696l-1.947,1.41
				c-1.323-2.446-3.079-4.789-5.267-7.027l1.61-1.41C68.535,119.625,70.402,121.967,72.067,124.696z M79.194,135.692l-2.222,1.048
				c-0.816-3.403-2.118-6.735-3.907-9.997l1.997-1.074C77.051,129.456,78.428,132.796,79.194,135.692z"/>
			<path fill="#FFFFFF" d="M104.655,129.152H99.65c-0.949,2.338-2.005,4.185-3.17,5.542c3.303,1.373,6.012,2.625,8.125,3.757
				l-1.348,1.872c-2.23-1.198-5.026-2.496-8.387-3.894c-2.613,2.088-6.515,3.362-11.708,3.819l-0.824-2.172
				c4.593-0.449,7.909-1.31,9.948-2.583c-2.239-0.849-4.539-1.61-6.902-2.284c0.974-1.273,1.935-2.625,2.883-4.056h-5.854v-2.147
				h7.214c0.782-1.223,1.564-2.554,2.347-3.994l2.434,0.362c-0.774,1.456-1.456,2.667-2.047,3.632h5.629
				c0.241-0.666,0.429-1.256,0.562-1.772l2.247,0.237c-0.067,0.441-0.204,0.953-0.412,1.535h4.269V129.152z M103.969,125.32h-2.271
				v-2.946H85.434v2.97h-2.346v-5.142h9.224c-0.283-0.741-0.641-1.415-1.074-2.022l2.297-0.611c0.507,0.699,0.944,1.577,1.311,2.633
				h9.124V125.32z M97.142,129.152h-6.104c-0.474,0.807-1.09,1.76-1.847,2.858c1.589,0.541,3.287,1.157,5.092,1.848
				C95.365,132.643,96.318,131.074,97.142,129.152z"/>
			<path fill="#FFFFFF" d="M130.242,134.132h-14.441v3.582c1.282-0.225,2.567-0.532,3.857-0.924l0.137,1.897
				c-2.072,0.574-4.186,1.023-6.34,1.348l-0.612-1.685c0.541-0.183,0.812-0.5,0.812-0.949v-3.27h-2.122
				c-0.25,2.43-0.923,4.46-2.022,6.091l-1.685-1.585c1.023-1.681,1.535-3.445,1.535-5.292v-6.141h20.557v1.685h-18.285v1.073h17.099
				v1.46h-17.099v1.098h18.609V134.132z M128.894,126.156h-19.146v-6.802h5.642v-1.523h2.147v1.523h3.482v-1.523h2.172v1.523h5.704
				V126.156z M115.389,122.075v-1.136h-3.47v1.136H115.389z M115.389,124.621v-1.123h-3.47v1.123H115.389z M121.018,122.075v-1.136
				h-3.482v1.136H121.018z M121.018,124.621v-1.123h-3.482v1.123H121.018z M130.292,138.4l-0.836,1.897
				c-4.302-0.5-7.822-2.118-10.559-4.855l2.022-0.749c0.799,0.732,1.718,1.373,2.758,1.922c1.123-0.532,2.28-1.189,3.47-1.972
				l1.635,1.311c-0.666,0.441-1.577,0.986-2.733,1.635C127.313,138.021,128.727,138.292,130.292,138.4z M126.747,122.075v-1.136
				h-3.557v1.136H126.747z M126.747,124.621v-1.123h-3.557v1.123H126.747z"/>
			<path fill="#FFFFFF" d="M140.489,125.595h-2.146v5.417c0.316-0.175,0.882-0.541,1.697-1.099l0.35,2.197
				c-3.004,2.014-5.143,3.295-6.416,3.844l-0.711-2.047c1.348-0.624,2.326-1.136,2.933-1.535v-6.777h-2.471v-2.047h2.471v-5.667
				h2.147v5.667h2.146V125.595z M155.729,129.639h-9.249c-0.375,0.574-0.674,0.998-0.899,1.273h9.636
				c-0.067,1.864-0.161,3.57-0.281,5.117c-0.121,1.548-0.242,2.465-0.362,2.752s-0.318,0.547-0.593,0.78
				c-0.274,0.233-0.647,0.397-1.117,0.493s-1.491,0.144-3.064,0.144l-0.711-2.047c0.458,0.034,0.924,0.05,1.398,0.05
				c1.065,0.008,1.714-0.129,1.947-0.412c0.232-0.283,0.403-1.951,0.512-5.005h-0.687c-1.282,3.104-3.736,5.583-7.364,7.439
				l-1.585-1.485c3.229-1.489,5.483-3.474,6.765-5.954h-1.61c-1.614,2.28-4.235,4.231-7.863,5.854l-1.46-1.585
				c3.187-1.298,5.471-2.721,6.852-4.269h-2.197c-0.999,0.849-1.931,1.548-2.796,2.097l-1.448-1.561
				c1.905-1.057,3.42-2.284,4.543-3.682h-4.006v-1.872h15.639V129.639z M154.43,126.468h-12.943v-8.238h12.943V126.468z
				 M152.259,121.476v-1.323h-8.6v1.323H152.259z M152.259,124.596v-1.348h-8.6v1.348H152.259z"/>
		</g>
	</g>
</g>
</svg>
