<?xml version="1.0" encoding="utf-8"?>
<!-- Generator: Adobe Illustrator 15.1.0, SVG Export Plug-In . SVG Version: 6.00 Build 0)  -->
<!DOCTYPE svg PUBLIC "-//W3C//DTD SVG 1.1//EN" "http://www.w3.org/Graphics/SVG/1.1/DTD/svg11.dtd">
<svg version="1.1" id="圖層_1" xmlns="http://www.w3.org/2000/svg" xmlns:xlink="http://www.w3.org/1999/xlink" x="0px" y="0px"
	 width="150px" height="150px" viewBox="0 0 150 150" enable-background="new 0 0 150 150" xml:space="preserve">
<g>
	<g>
		<g>
			<path fill="#FFFFFF" d="M126.4,101.867c-1.09-4.066-5.301-6.533-9.585-5.615l-1.892,0.406c-0.898-2.886-1.982-5.572-3.248-8.057
				c-0.012-0.023-0.024-0.047-0.037-0.071c-2.647-5.174-6.088-9.462-10.289-12.808c-3.324-2.648-7.066-4.669-11.18-6.056
				c0.533-1.673,1.205-4.239,1.543-7.36c0.01-0.095,0.02-0.189,0.028-0.283c1.188,0.034,2.274,0.095,3.271,0.15
				c1.231,0.069,2.295,0.13,3.311,0.13l0,0c6.609,0,9.387-2.926,14.143-14.908c0.246-0.622,0.17-1.325-0.206-1.878
				c-0.376-0.554-1.001-0.885-1.671-0.885c-1.951,0-3.645-0.097-5.138-0.181c-1.231-0.069-2.297-0.13-3.312-0.13
				c-4.954,0-7.754,1.644-10.85,7.51c-0.682-3.432-1.908-6.684-3.662-9.658c-4.723-11.864-7.502-14.768-14.086-14.768
				c-1.016,0-2.08,0.06-3.312,0.129c-1.494,0.085-3.188,0.181-5.139,0.181c-0.669,0-1.294,0.331-1.669,0.885
				c-0.377,0.552-0.453,1.257-0.207,1.878c4.756,11.983,7.531,14.909,14.143,14.909c1.016,0,2.08-0.061,3.312-0.13
				c1.188-0.067,2.503-0.141,3.972-0.168c2.678,4.945,3.711,10.54,3.074,16.647c-0.308,2.946-0.957,5.357-1.436,6.835
				c-1.535-0.35-3.111-0.626-4.734-0.815c-11.65-1.357-23.665,2.007-27.396,5.968c-0.926-0.004-1.906-0.004-2.959-0.004h-8.205
				v-1.452c0-1.115-0.903-2.019-2.018-2.019H25.348c-1.114,0-2.018,0.903-2.018,2.019v32.732c0,1.114,0.903,2.019,2.018,2.019
				h15.619c1.114,0,2.018-0.904,2.018-2.019v-1.452h2.588l21.958,13.975c0.315,0.199,0.679,0.309,1.051,0.314l26.835,0.438
				c0.007,0,0.014,0,0.021,0c0.003,0,0.007,0.001,0.012,0.001c0.007,0,0.013-0.001,0.021-0.001c0.072-0.002,0.145-0.006,0.217-0.015
				c0.021-0.002,0.043-0.007,0.064-0.011c0.063-0.009,0.127-0.021,0.188-0.037c0.011-0.003,0.022-0.003,0.032-0.006l24.838-6.655
				C125.02,110.423,127.528,106.079,126.4,101.867z M102.139,48.359c0.9,0,1.912,0.058,3.084,0.123
				c0.744,0.042,1.535,0.087,2.385,0.122c-3.925,9.241-5.795,9.662-9.283,9.662h-0.002c-0.9,0-1.912-0.057-3.084-0.122
				c-0.744-0.043-1.535-0.088-2.385-0.123C96.777,48.781,98.648,48.359,102.139,48.359z M80.441,41.228
				c-1.17,0.065-2.183,0.123-3.084,0.123c-3.49,0-5.359-0.42-9.285-9.662c0.851-0.036,1.643-0.08,2.385-0.122
				c1.172-0.067,2.183-0.123,3.084-0.123c3.491,0,5.361,0.42,9.285,9.662C81.977,41.141,81.186,41.186,80.441,41.228z
				 M38.947,102.983H27.366V74.287h11.581V102.983z M64.62,72.975c5.183-1.412,11.025-1.841,16.456-1.209
				c1.863,0.219,3.826,0.573,5.824,1.119c0.081,0.027,0.162,0.052,0.244,0.068c7.02,1.969,14.475,6.314,19.771,15.341
				c-2.07,0.569-4.371,0.952-6.875,1.14c-1.111,0.082-1.945,1.052-1.862,2.162c0.079,1.062,0.964,1.869,2.011,1.869
				c0.051,0,0.102-0.001,0.152-0.006c3.096-0.231,5.934-0.742,8.474-1.516c0.788,1.712,1.506,3.563,2.143,5.563l-14.915,3.195
				l-9.018-1.483c0.963-2.731,0.322-5.875-1.914-8.121c-0.932-0.936-1.862-1.871-2.793-2.807c-1.816-1.826-3.633-3.651-5.453-5.473
				c-4.426-4.426-7.162-6.741-10.758-7.929c-1.393-0.461-2.865-0.74-4.588-0.909C62.412,73.638,63.441,73.297,64.62,72.975z
				 M119.765,107.652l-24.565,6.582l-25.982-0.423L47.244,99.828c-0.324-0.206-0.7-0.316-1.084-0.316h-3.176V77.757h8.205
				c1.437,0,2.734,0,3.917,0.008c0.01,0.001,0.019,0.001,0.029,0.001c10.364,0.075,11.776,0.807,18.876,7.906
				c1.818,1.818,3.631,3.642,5.445,5.465c0.932,0.937,1.862,1.874,2.794,2.809c1.515,1.521,1.543,3.873,0.063,5.353
				c-1.502,1.501-3.755,1.582-5.738,0.205l-9.332-6.482c-0.916-0.636-2.174-0.409-2.809,0.506c-0.637,0.916-0.41,2.174,0.506,2.81
				l9.332,6.482c1.65,1.145,3.46,1.711,5.217,1.711c1.741,0,3.43-0.559,4.859-1.66l11.416,1.878c0.248,0.041,0.502,0.035,0.75-0.018
				l21.146-4.529c2.217-0.477,4.297,0.69,4.84,2.712C123.053,104.974,121.825,107.1,119.765,107.652z"/>
		</g>
	</g>
	<path fill="#FFFFFF" d="M75,150c-10.124,0-19.946-1.982-29.194-5.895c-8.931-3.777-16.952-9.186-23.839-16.072
		c-6.887-6.888-12.295-14.907-16.072-23.839C1.982,94.947,0,85.124,0,75c0-10.123,1.982-19.946,5.895-29.193
		c3.777-8.932,9.186-16.953,16.072-23.84S36.875,9.673,45.806,5.895C55.054,1.983,64.876,0,75,0s19.946,1.983,29.194,5.895
		c8.931,3.778,16.952,9.186,23.839,16.072s12.295,14.908,16.072,23.84C148.018,55.054,150,64.877,150,75
		c0,10.124-1.982,19.947-5.895,29.194c-3.777,8.932-9.186,16.951-16.072,23.839c-6.887,6.887-14.908,12.295-23.839,16.072
		C94.946,148.018,85.124,150,75,150z M75,4.318C36.025,4.318,4.318,36.026,4.318,75S36.025,145.681,75,145.681
		S145.682,113.974,145.682,75S113.975,4.318,75,4.318z"/>
</g>
</svg>
