<?xml version="1.0" encoding="utf-8"?>
<!-- Generator: Adobe Illustrator 15.1.0, SVG Export Plug-In . SVG Version: 6.00 Build 0)  -->
<!DOCTYPE svg PUBLIC "-//W3C//DTD SVG 1.1//EN" "http://www.w3.org/Graphics/SVG/1.1/DTD/svg11.dtd">
<svg version="1.1" id="圖層_1" xmlns="http://www.w3.org/2000/svg" xmlns:xlink="http://www.w3.org/1999/xlink" x="0px" y="0px"
	 width="150px" height="150px" viewBox="0 0 150 150" enable-background="new 0 0 150 150" xml:space="preserve">
<g>
	<g>
		<g>
			<path fill="#FFFFFF" d="M119.767,95.674l-2.691-2.69l-2.69-2.691c-2.489-2.49-5.813-3.861-9.354-3.861
				c-2.928,0-5.703,0.938-7.984,2.669l-14.1-14.101l3.519-3.519c0.227,0.091,0.454,0.173,0.68,0.239
				c0.171,0.051,0.345,0.075,0.518,0.075c0.474,0,0.938-0.186,1.282-0.53l2.439-2.439c2.185,1.647,4.999,3.513,7.749,4.593
				c0.215,0.085,0.439,0.126,0.662,0.126c0.473,0,0.936-0.185,1.283-0.531l16.364-16.364l3.435-3.435
				c0.707-0.708,0.707-1.855,0-2.563c-0.709-0.707-1.855-0.707-2.564,0l-3.435,3.435l-10.456,10.456
				c-1.864-0.726-4.34-1.7-6.465-2.76l16.385-16.384c0.707-0.708,0.707-1.856,0-2.563c-0.709-0.708-1.855-0.708-2.564,0
				L96.523,58.087c-0.003-0.009-0.006-0.017-0.01-0.025c-0.863-2.087-2.618-3.77-4.605-4.584l15.257-15.256
				c0.708-0.708,0.708-1.856,0-2.563c-0.708-0.708-1.855-0.708-2.563,0L88.218,52.042c-1.061-2.126-2.034-4.601-2.76-6.466
				L95.914,35.12l3.435-3.434c0.708-0.708,0.708-1.856,0-2.564c-0.708-0.707-1.856-0.707-2.564,0l-3.434,3.435L82.076,43.832
				c-0.004,0.004-0.008,0.007-0.011,0.01l-5.079,5.08c-0.511,0.51-0.67,1.272-0.406,1.945c1.082,2.75,2.946,5.564,4.594,7.749
				l-2.439,2.439c-0.471,0.471-0.645,1.161-0.455,1.799c0.067,0.227,0.148,0.454,0.24,0.681L75,67.054l-3.519-3.519
				c0.091-0.227,0.172-0.454,0.24-0.681c0.19-0.638,0.016-1.328-0.456-1.799l-2.439-2.439c1.648-2.185,3.512-4.999,4.593-7.749
				c0.264-0.672,0.105-1.436-0.405-1.945L60.496,36.403c-3.809-3.81-8.352-5.545-13.502-5.159
				c-4.313,0.323-8.329,2.086-11.347,3.586c-0.354,0.176-0.64,0.463-0.816,0.816c-1.5,3.017-3.263,7.032-3.585,11.346
				c-0.386,5.152,1.35,9.693,5.158,13.502l12.52,12.52c0.346,0.347,0.81,0.531,1.282,0.531c0.223,0,0.448-0.041,0.663-0.126
				c2.751-1.081,5.564-2.946,7.749-4.593l2.44,2.438c0.344,0.345,0.808,0.531,1.282,0.531c0.173,0,0.347-0.025,0.517-0.075
				c0.227-0.067,0.454-0.149,0.681-0.24l3.519,3.519L52.955,89.1c-2.281-1.73-5.057-2.669-7.984-2.669l0,0
				c-3.543,0-6.865,1.372-9.354,3.861l-2.692,2.692c0,0-0.001,0-0.001,0.001l-2.689,2.688c-2.19,2.19-2.19,5.755,0,7.945
				l16.146,16.146c1.059,1.058,2.47,1.641,3.973,1.641c1.504,0,2.915-0.583,3.973-1.641l2.691-2.69l2.691-2.691
				c2.491-2.49,3.861-5.813,3.861-9.355c0-2.927-0.939-5.703-2.668-7.983L75,82.944l14.1,14.101
				c-1.729,2.28-2.668,5.057-2.668,7.983c0,3.543,1.371,6.865,3.861,9.355l2.691,2.691l2.69,2.69
				c1.095,1.095,2.534,1.643,3.973,1.643s2.878-0.548,3.973-1.643l2.688-2.689c0.001-0.001,0.002-0.001,0.002-0.001l10.765-10.765
				c0.001,0,0.001-0.002,0.002-0.002l2.688-2.689C121.957,101.429,121.957,97.865,119.767,95.674z M95.222,64.987
				c0.118-0.118,0.229-0.239,0.337-0.365c1.928,1.022,4.154,1.956,6.066,2.716l-2.238,2.238c-1.623-0.768-3.479-1.916-5.412-3.343
				L95.222,64.987z M87.575,57.341c0.518-0.518,1.091-0.769,1.751-0.769c1.459,0,3.181,1.29,3.838,2.876
				c0.479,1.158,0.31,2.159-0.506,2.975l-5.428,5.428c-1.041-0.536-2.174-1.406-2.925-2.157c-0.752-0.752-1.621-1.883-2.157-2.926
				L87.575,57.341z M80.421,50.612l2.24-2.238c0.76,1.912,1.694,4.139,2.715,6.067c-0.124,0.106-0.246,0.218-0.364,0.337
				l-1.247,1.247C82.338,54.091,81.191,52.234,80.421,50.612z M50.614,69.577L38.967,57.931c-6.39-6.39-4.266-13.717-1.159-20.124
				c6.406-3.106,13.734-5.23,20.124,1.159l11.646,11.646c-0.77,1.622-1.917,3.479-3.344,5.413c-2.088-2.073-4.655-3.169-7.427-3.169
				c-1.777,0-3.234,0.445-4.143,0.82c-0.447,0.184-0.802,0.539-0.986,0.986c-0.629,1.529-2.314,6.873,2.348,11.57
				C54.093,67.66,52.236,68.808,50.614,69.577z M62.77,67.851l-2.707-2.707c-0.002-0.002-0.004-0.004-0.006-0.006l-1.432-1.433
				c-2.568-2.568-2.312-5.352-1.85-6.929c0.661-0.191,1.362-0.293,2.033-0.293c1.831,0,3.479,0.72,4.899,2.139l4.146,4.146
				c-0.536,1.042-1.406,2.174-2.157,2.926C64.943,66.444,63.811,67.314,62.77,67.851z M66.754,69.57
				c0.579-0.448,1.095-0.905,1.504-1.314s0.865-0.924,1.314-1.504l2.864,2.864l-2.818,2.818L66.754,69.57z M44.97,113.229
				l-8.201-8.201l2.817-2.817l4.102,4.1l4.1,4.101L44.97,113.229z M42.151,99.646l1.41-1.409c0.369-0.368,0.869-0.571,1.409-0.571
				c0.541,0,1.042,0.203,1.409,0.571l5.382,5.383c0.765,0.764,0.765,2.054,0,2.817l-1.409,1.409L42.151,99.646z M57.143,95.674
				c-0.707,0.707-0.707,1.855,0,2.563c1.806,1.805,2.8,4.217,2.8,6.791c0,2.575-0.994,4.986-2.799,6.791l-5.382,5.383
				c-0.776,0.777-2.041,0.777-2.817,0l-1.409-1.41l6.791-6.791c2.19-2.19,2.19-5.755,0-7.944l-5.382-5.383
				c-1.053-1.054-2.464-1.633-3.973-1.633c-1.509,0-2.919,0.579-3.972,1.633l-6.792,6.791l-1.409-1.408
				c-0.374-0.374-0.579-0.874-0.579-1.41c0-0.534,0.205-1.035,0.579-1.408l5.382-5.383c1.805-1.806,4.217-2.799,6.791-2.799
				c2.575,0,4.986,0.994,6.792,2.799c0.708,0.708,1.856,0.708,2.564,0l26.103-26.103c0.449,0.579,0.905,1.095,1.314,1.504
				s0.926,0.865,1.504,1.314L57.143,95.674z M105.029,113.229l-2.818-2.818l8.201-8.2l2.818,2.817L105.029,113.229z M99.647,107.847
				l-1.409-1.409c-0.368-0.367-0.571-0.868-0.571-1.409c0-0.539,0.203-1.04,0.571-1.408l5.383-5.383
				c0.367-0.368,0.868-0.571,1.408-0.571c0.541,0,1.041,0.203,1.409,0.571l1.409,1.409L99.647,107.847z M117.203,101.056
				l-1.409,1.409l-4.101-4.1c-0.001-0.002-0.002-0.002-0.003-0.004l-2.688-2.688c-1.053-1.054-2.463-1.633-3.973-1.633
				c-1.509,0-2.92,0.579-3.973,1.633l-5.382,5.383c-1.054,1.053-1.634,2.463-1.634,3.972c0,1.51,0.58,2.921,1.633,3.973l2.688,2.688
				c0.001,0.001,0.002,0.003,0.003,0.004l4.1,4.099l-1.409,1.41c-0.373,0.373-0.873,0.579-1.408,0.579s-1.036-0.206-1.409-0.579
				l-2.691-2.691l-2.691-2.69c-1.805-1.806-2.799-4.217-2.799-6.792c0-2.574,0.994-4.986,2.8-6.791c0.708-0.708,0.708-1.855,0-2.563
				L77.563,80.382l2.817-2.818l15.293,15.292c0.709,0.708,1.856,0.708,2.564,0c1.805-1.805,4.217-2.799,6.791-2.799
				s4.986,0.994,6.791,2.799l2.688,2.688c0.001,0.001,0.002,0.001,0.004,0.003l2.69,2.691c0.374,0.373,0.579,0.873,0.579,1.408
				S117.576,100.683,117.203,101.056z"/>
		</g>
	</g>
	<path fill="#FFFFFF" d="M75,150c-10.124,0-19.946-1.982-29.194-5.895c-8.931-3.777-16.952-9.186-23.839-16.072
		c-6.887-6.888-12.294-14.907-16.072-23.839C1.983,94.947,0,85.124,0,75c0-10.123,1.983-19.946,5.895-29.193
		c3.778-8.932,9.186-16.953,16.072-23.84C28.854,15.08,36.875,9.673,45.806,5.895C55.054,1.983,64.876,0,75,0
		s19.946,1.983,29.194,5.895c8.931,3.778,16.952,9.186,23.839,16.072s12.295,14.908,16.072,23.84C148.018,55.054,150,64.877,150,75
		c0,10.124-1.982,19.947-5.895,29.194c-3.777,8.932-9.186,16.951-16.072,23.839c-6.887,6.887-14.908,12.295-23.839,16.072
		C94.946,148.018,85.124,150,75,150z M75,4.318C36.026,4.318,4.319,36.026,4.319,75S36.026,145.681,75,145.681
		c38.975,0,70.682-31.707,70.682-70.681S113.975,4.318,75,4.318z"/>
</g>
</svg>
